<svg width="228" height="44" viewBox="0 0 228 44" fill="none" xmlns="http://www.w3.org/2000/svg">
<g filter="url(#filter0_d_1_2)">
<path d="M19.4787 9.34801C19.3764 8.31676 18.9375 7.51562 18.1619 6.9446C17.3864 6.37358 16.3338 6.08807 15.0043 6.08807C14.1009 6.08807 13.3381 6.21591 12.7159 6.47159C12.0938 6.71875 11.6165 7.06392 11.2841 7.5071C10.9602 7.95028 10.7983 8.45312 10.7983 9.01562C10.7813 9.48438 10.8793 9.89347 11.0923 10.2429C11.3139 10.5923 11.6165 10.8949 12 11.1506C12.3835 11.3977 12.8267 11.6151 13.3295 11.8026C13.8324 11.9815 14.3693 12.1349 14.9403 12.2628L17.2926 12.8253C18.4347 13.081 19.483 13.4219 20.4375 13.848C21.392 14.2741 22.2188 14.7983 22.9176 15.4205C23.6165 16.0426 24.1577 16.7756 24.5412 17.6193C24.9332 18.4631 25.1335 19.4304 25.142 20.5213C25.1335 22.1236 24.7244 23.5128 23.9148 24.6889C23.1136 25.8565 21.9545 26.7642 20.4375 27.4119C18.929 28.0511 17.1094 28.3707 14.9787 28.3707C12.8651 28.3707 11.0241 28.0469 9.45597 27.3991C7.89631 26.7514 6.67756 25.7926 5.79972 24.5227C4.9304 23.2443 4.47443 21.6634 4.43182 19.7798H9.78835C9.84801 20.6577 10.0994 21.3906 10.5426 21.9787C10.9943 22.5582 11.5952 22.9972 12.3452 23.2955C13.1037 23.5852 13.9602 23.7301 14.9148 23.7301C15.8523 23.7301 16.6662 23.5937 17.3565 23.321C18.0554 23.0483 18.5966 22.669 18.9801 22.1832C19.3636 21.6974 19.5554 21.1392 19.5554 20.5085C19.5554 19.9205 19.3807 19.4261 19.0312 19.0256C18.6903 18.625 18.1875 18.2841 17.5227 18.0028C16.8665 17.7216 16.0611 17.4659 15.1065 17.2358L12.2557 16.5199C10.0483 15.983 8.3054 15.1435 7.02699 14.0014C5.74858 12.8594 5.11364 11.321 5.12216 9.38636C5.11364 7.80114 5.53551 6.41619 6.38778 5.23153C7.24858 4.04687 8.42898 3.12216 9.92898 2.45739C11.429 1.79261 13.1335 1.46023 15.0426 1.46023C16.9858 1.46023 18.6818 1.79261 20.1307 2.45739C21.5881 3.12216 22.7216 4.04687 23.5312 5.23153C24.3409 6.41619 24.7585 7.78835 24.7841 9.34801H19.4787ZM30.5631 28V8.36364H36.0092V28H30.5631ZM33.2989 5.83239C32.4893 5.83239 31.7947 5.56392 31.2151 5.02699C30.6441 4.48153 30.3586 3.82954 30.3586 3.07102C30.3586 2.32102 30.6441 1.67756 31.2151 1.14062C31.7947 0.59517 32.4893 0.322442 33.2989 0.322442C34.1086 0.322442 34.7989 0.59517 35.37 1.14062C35.9495 1.67756 36.2393 2.32102 36.2393 3.07102C36.2393 3.82954 35.9495 4.48153 35.37 5.02699C34.7989 5.56392 34.1086 5.83239 33.2989 5.83239ZM42.1717 28V8.36364H47.3621V11.8281H47.5922C48.0013 10.6776 48.6831 9.76989 49.6376 9.10511C50.5922 8.44034 51.7342 8.10795 53.0638 8.10795C54.4104 8.10795 55.5567 8.4446 56.5027 9.1179C57.4487 9.78267 58.0794 10.6861 58.3947 11.8281H58.5993C58.9999 10.7031 59.7243 9.80398 60.7726 9.13068C61.8294 8.44886 63.078 8.10795 64.5183 8.10795C66.3507 8.10795 67.8379 8.69176 68.98 9.85938C70.1305 11.0185 70.7058 12.6634 70.7058 14.794V28H65.2726V15.8679C65.2726 14.777 64.9828 13.9588 64.4033 13.4134C63.8237 12.8679 63.0993 12.5952 62.23 12.5952C61.2413 12.5952 60.47 12.9105 59.9161 13.5412C59.3621 14.1634 59.0851 14.9858 59.0851 16.0085V28H53.8053V15.7528C53.8053 14.7898 53.5283 14.0227 52.9743 13.4517C52.4288 12.8807 51.7087 12.5952 50.8138 12.5952C50.2087 12.5952 49.6632 12.7486 49.1774 13.0554C48.7001 13.3537 48.3209 13.7756 48.0396 14.321C47.7584 14.858 47.6178 15.4886 47.6178 16.2131V28H42.1717ZM87.3673 8.36364V12.4545H75.248V8.36364H87.3673ZM78.0222 28V6.9446C78.0222 5.52131 78.2991 4.34091 78.8531 3.40341C79.4156 2.46591 80.1827 1.76278 81.1543 1.29403C82.1259 0.825282 83.2295 0.590907 84.4653 0.590907C85.3006 0.590907 86.0634 0.654828 86.7537 0.78267C87.4526 0.910511 87.9724 1.02557 88.3134 1.12784L87.3418 5.21875C87.1287 5.15057 86.8645 5.08665 86.5491 5.02699C86.2423 4.96733 85.927 4.9375 85.6031 4.9375C84.802 4.9375 84.2438 5.125 83.9284 5.5C83.6131 5.86648 83.4554 6.3821 83.4554 7.04688V28H78.0222ZM95.8566 35.3636C95.1663 35.3636 94.5185 35.3082 93.9134 35.1974C93.3168 35.0952 92.8225 34.9631 92.4305 34.8011L93.6577 30.7358C94.2969 30.9318 94.8722 31.0384 95.3836 31.0554C95.9035 31.0724 96.3509 30.9531 96.7259 30.6974C97.1094 30.4418 97.4205 30.0071 97.6592 29.3935L97.9788 28.5625L90.9347 8.36364H96.662L100.727 22.7841H100.932L105.036 8.36364H110.801L103.169 30.1222C102.803 31.179 102.304 32.0994 101.673 32.8835C101.051 33.6761 100.263 34.2855 99.3083 34.7116C98.3538 35.1463 97.2032 35.3636 95.8566 35.3636ZM139.826 9.34801C139.723 8.31676 139.284 7.51562 138.509 6.9446C137.733 6.37358 136.681 6.08807 135.351 6.08807C134.448 6.08807 133.685 6.21591 133.063 6.47159C132.441 6.71875 131.963 7.06392 131.631 7.5071C131.307 7.95028 131.145 8.45312 131.145 9.01562C131.128 9.48438 131.226 9.89347 131.439 10.2429C131.661 10.5923 131.963 10.8949 132.347 11.1506C132.73 11.3977 133.174 11.6151 133.676 11.8026C134.179 11.9815 134.716 12.1349 135.287 12.2628L137.639 12.8253C138.782 13.081 139.83 13.4219 140.784 13.848C141.739 14.2741 142.566 14.7983 143.264 15.4205C143.963 16.0426 144.505 16.7756 144.888 17.6193C145.28 18.4631 145.48 19.4304 145.489 20.5213C145.48 22.1236 145.071 23.5128 144.262 24.6889C143.461 25.8565 142.301 26.7642 140.784 27.4119C139.276 28.0511 137.456 28.3707 135.326 28.3707C133.212 28.3707 131.371 28.0469 129.803 27.3991C128.243 26.7514 127.024 25.7926 126.147 24.5227C125.277 23.2443 124.821 21.6634 124.779 19.7798H130.135C130.195 20.6577 130.446 21.3906 130.889 21.9787C131.341 22.5582 131.942 22.9972 132.692 23.2955C133.451 23.5852 134.307 23.7301 135.262 23.7301C136.199 23.7301 137.013 23.5937 137.703 23.321C138.402 23.0483 138.943 22.669 139.327 22.1832C139.711 21.6974 139.902 21.1392 139.902 20.5085C139.902 19.9205 139.728 19.4261 139.378 19.0256C139.037 18.625 138.534 18.2841 137.87 18.0028C137.213 17.7216 136.408 17.4659 135.453 17.2358L132.603 16.5199C130.395 15.983 128.652 15.1435 127.374 14.0014C126.095 12.8594 125.461 11.321 125.469 9.38636C125.461 7.80114 125.882 6.41619 126.735 5.23153C127.595 4.04687 128.776 3.12216 130.276 2.45739C131.776 1.79261 133.48 1.46023 135.389 1.46023C137.333 1.46023 139.029 1.79261 140.478 2.45739C141.935 3.12216 143.068 4.04687 143.878 5.23153C144.688 6.41619 145.105 7.78835 145.131 9.34801H139.826ZM161.355 8.36364V12.4545H149.529V8.36364H161.355ZM152.214 3.65909H157.66V21.9659C157.66 22.4687 157.737 22.8608 157.89 23.142C158.044 23.4148 158.257 23.6065 158.529 23.7173C158.811 23.8281 159.134 23.8835 159.501 23.8835C159.757 23.8835 160.012 23.8622 160.268 23.8196C160.524 23.7685 160.72 23.7301 160.856 23.7045L161.713 27.7571C161.44 27.8423 161.056 27.9403 160.562 28.0511C160.068 28.1705 159.467 28.2429 158.759 28.2685C157.447 28.3196 156.296 28.1449 155.308 27.7443C154.328 27.3437 153.565 26.7216 153.019 25.8778C152.474 25.0341 152.205 23.9687 152.214 22.6818V3.65909ZM175.363 28.3835C173.378 28.3835 171.66 27.9616 170.211 27.1179C168.771 26.2656 167.659 25.081 166.875 23.5639C166.091 22.0384 165.699 20.2699 165.699 18.2585C165.699 16.2301 166.091 14.4574 166.875 12.9403C167.659 11.4148 168.771 10.2301 170.211 9.38636C171.66 8.53409 173.378 8.10795 175.363 8.10795C177.349 8.10795 179.062 8.53409 180.503 9.38636C181.951 10.2301 183.068 11.4148 183.852 12.9403C184.636 14.4574 185.028 16.2301 185.028 18.2585C185.028 20.2699 184.636 22.0384 183.852 23.5639C183.068 25.081 181.951 26.2656 180.503 27.1179C179.062 27.9616 177.349 28.3835 175.363 28.3835ZM175.389 24.1648C176.292 24.1648 177.047 23.9091 177.652 23.3977C178.257 22.8778 178.713 22.1705 179.02 21.2756C179.335 20.3807 179.493 19.3622 179.493 18.2202C179.493 17.0781 179.335 16.0597 179.02 15.1648C178.713 14.2699 178.257 13.5625 177.652 13.0426C177.047 12.5227 176.292 12.2628 175.389 12.2628C174.477 12.2628 173.71 12.5227 173.088 13.0426C172.474 13.5625 172.01 14.2699 171.694 15.1648C171.388 16.0597 171.234 17.0781 171.234 18.2202C171.234 19.3622 171.388 20.3807 171.694 21.2756C172.01 22.1705 172.474 22.8778 173.088 23.3977C173.71 23.9091 174.477 24.1648 175.389 24.1648ZM190.369 28V8.36364H195.649V11.7898H195.854C196.212 10.571 196.813 9.65057 197.656 9.02841C198.5 8.39773 199.472 8.08239 200.571 8.08239C200.844 8.08239 201.138 8.09943 201.453 8.13352C201.769 8.16761 202.046 8.21449 202.284 8.27415V13.1065C202.028 13.0298 201.675 12.9616 201.223 12.902C200.771 12.8423 200.358 12.8125 199.983 12.8125C199.182 12.8125 198.466 12.9872 197.835 13.3366C197.213 13.6776 196.719 14.1548 196.352 14.7685C195.994 15.3821 195.815 16.0895 195.815 16.8906V28H190.369ZM214.935 28.3835C212.915 28.3835 211.176 27.9744 209.719 27.1562C208.27 26.3295 207.153 25.1619 206.369 23.6534C205.585 22.1364 205.193 20.3423 205.193 18.2713C205.193 16.2514 205.585 14.4787 206.369 12.9531C207.153 11.4276 208.257 10.2386 209.68 9.38636C211.112 8.53409 212.791 8.10795 214.717 8.10795C216.013 8.10795 217.219 8.31676 218.335 8.73438C219.46 9.14347 220.44 9.76136 221.276 10.5881C222.119 11.4148 222.776 12.4545 223.244 13.7074C223.713 14.9517 223.947 16.4091 223.947 18.0795V19.5753H207.366V16.2003H218.821C218.821 15.4162 218.651 14.7216 218.31 14.1165C217.969 13.5114 217.496 13.0384 216.891 12.6974C216.294 12.348 215.599 12.1733 214.807 12.1733C213.98 12.1733 213.247 12.3651 212.608 12.7486C211.977 13.1236 211.483 13.6307 211.125 14.2699C210.767 14.9006 210.584 15.6037 210.575 16.3793V19.5881C210.575 20.5597 210.754 21.3991 211.112 22.1065C211.479 22.8139 211.994 23.3594 212.659 23.7429C213.324 24.1264 214.112 24.3182 215.024 24.3182C215.629 24.3182 216.183 24.233 216.686 24.0625C217.189 23.892 217.619 23.6364 217.977 23.2955C218.335 22.9545 218.608 22.5369 218.795 22.0426L223.832 22.375C223.577 23.5852 223.053 24.642 222.26 25.5455C221.476 26.4403 220.462 27.1392 219.217 27.642C217.982 28.1364 216.554 28.3835 214.935 28.3835Z" fill="#FFFCFC"/>
<path d="M19.4787 9.34801L18.4836 9.4467L18.573 10.348H19.4787V9.34801ZM12.7159 6.47159L13.0851 7.40101L13.096 7.39653L12.7159 6.47159ZM11.2841 7.5071L10.484 6.90705L10.4767 6.91709L11.2841 7.5071ZM10.7983 9.01562L11.7976 9.05196L11.7983 9.0338V9.01562H10.7983ZM11.0923 10.2429L10.2385 10.7635L10.2431 10.771L10.2478 10.7784L11.0923 10.2429ZM12 11.1506L11.4453 11.9826L11.4518 11.9869L11.4583 11.9911L12 11.1506ZM13.3295 11.8026L12.9802 12.7395L12.9872 12.7421L12.9942 12.7447L13.3295 11.8026ZM14.9403 12.2628L15.1729 11.2902L15.1659 11.2885L15.1588 11.2869L14.9403 12.2628ZM17.2926 12.8253L17.06 13.7979L17.0671 13.7995L17.0741 13.8011L17.2926 12.8253ZM20.4375 13.848L20.0298 14.7611L20.0298 14.7611L20.4375 13.848ZM22.9176 15.4205L23.5825 14.6735L23.5825 14.6735L22.9176 15.4205ZM24.5412 17.6193L23.6308 18.0331L23.6343 18.0407L24.5412 17.6193ZM25.142 20.5213L26.1421 20.5266L26.142 20.5135L25.142 20.5213ZM23.9148 24.6889L23.0911 24.1219L23.0902 24.1232L23.9148 24.6889ZM20.4375 27.4119L20.8277 28.3327L20.8302 28.3316L20.4375 27.4119ZM9.45597 27.3991L9.07243 28.3227L9.07421 28.3234L9.45597 27.3991ZM5.79972 24.5227L4.97277 25.0851L4.97713 25.0914L5.79972 24.5227ZM4.43182 19.7798V18.7798H3.40894L3.43207 19.8024L4.43182 19.7798ZM9.78835 19.7798L10.7861 19.712L10.7227 18.7798H9.78835V19.7798ZM10.5426 21.9787L9.744 22.5805L9.74889 22.587L9.75389 22.5934L10.5426 21.9787ZM12.3452 23.2955L11.9756 24.2247L11.9883 24.2296L12.3452 23.2955ZM17.3565 23.321L16.993 22.3894L16.9891 22.391L17.3565 23.321ZM18.9801 22.1832L19.765 22.8029L19.765 22.8029L18.9801 22.1832ZM19.0312 19.0256L18.2697 19.6737L18.2777 19.6829L19.0312 19.0256ZM17.5227 18.0028L17.1288 18.922L17.1331 18.9238L17.5227 18.0028ZM15.1065 17.2358L14.863 18.2057L14.8722 18.2079L15.1065 17.2358ZM12.2557 16.5199L12.4992 15.55L12.492 15.5482L12.2557 16.5199ZM7.02699 14.0014L6.36078 14.7472L6.36078 14.7472L7.02699 14.0014ZM5.12216 9.38636L6.1222 9.39077L6.12214 9.38099L5.12216 9.38636ZM6.38778 5.23153L5.57879 4.6437L5.57603 4.64754L6.38778 5.23153ZM20.1307 2.45739L19.7137 3.36628L19.7157 3.3672L20.1307 2.45739ZM23.5312 5.23153L22.7057 5.79579L22.7057 5.79579L23.5312 5.23153ZM24.7841 9.34801V10.348H25.8006L25.784 9.33162L24.7841 9.34801ZM20.4738 9.24932C20.346 7.96029 19.7773 6.89212 18.7548 6.13932L17.569 7.74988C18.0977 8.13913 18.4069 8.67323 18.4836 9.4467L20.4738 9.24932ZM18.7548 6.13932C17.7529 5.40167 16.4677 5.08807 15.0043 5.08807V7.08807C16.1999 7.08807 17.0198 7.34548 17.569 7.74988L18.7548 6.13932ZM15.0043 5.08807C14.0126 5.08807 13.1122 5.22757 12.3358 5.54665L13.096 7.39653C13.5639 7.20425 14.1891 7.08807 15.0043 7.08807V5.08807ZM12.3467 5.54224C11.5892 5.84317 10.9481 6.28849 10.4841 6.9071L12.0841 8.1071C12.2849 7.83935 12.5983 7.59433 13.0851 7.40094L12.3467 5.54224ZM10.4767 6.91709C10.0244 7.53603 9.7983 8.24664 9.7983 9.01562H11.7983C11.7983 8.65961 11.8961 8.36454 12.0915 8.09712L10.4767 6.91709ZM9.79896 8.97929C9.77586 9.61451 9.90909 10.2232 10.2385 10.7635L11.9461 9.72229C11.8494 9.56372 11.7866 9.35424 11.7976 9.05196L9.79896 8.97929ZM10.2478 10.7784C10.5524 11.2587 10.9588 11.6583 11.4453 11.9826L12.5547 10.3185C12.2741 10.1315 12.0755 9.92599 11.9368 9.70736L10.2478 10.7784ZM11.4583 11.9911C11.9118 12.2834 12.4214 12.5312 12.9802 12.7395L13.6789 10.8656C13.232 10.6989 12.8553 10.5121 12.5417 10.31L11.4583 11.9911ZM12.9942 12.7447C13.5387 12.9385 14.115 13.1028 14.7219 13.2386L15.1588 11.2869C14.6237 11.1671 14.126 11.0246 13.6649 10.8605L12.9942 12.7447ZM14.7078 13.2354L17.06 13.7979L17.5252 11.8527L15.1729 11.2902L14.7078 13.2354ZM17.0741 13.8011C18.1588 14.044 19.1428 14.3652 20.0298 14.7611L20.8452 12.9349C19.8231 12.4786 18.7105 12.118 17.5111 11.8494L17.0741 13.8011ZM20.0298 14.7611C20.9015 15.1503 21.6389 15.621 22.2527 16.1674L23.5825 14.6735C22.7986 13.9756 21.8826 13.398 20.8452 12.9349L20.0298 14.7611ZM22.2527 16.1674C22.8484 16.6977 23.3056 17.3175 23.6308 18.0331L25.4516 17.2055C25.0098 16.2336 24.3845 15.3875 23.5825 14.6735L22.2527 16.1674ZM23.6343 18.0407C23.9566 18.7344 24.1345 19.5567 24.1421 20.5291L26.142 20.5135C26.1326 19.3041 25.9099 18.1918 25.4481 17.1979L23.6343 18.0407ZM24.1421 20.516C24.1345 21.943 23.7733 23.1308 23.0911 24.1219L24.7385 25.256C25.6755 23.8947 26.1326 22.3041 26.142 20.5266L24.1421 20.516ZM23.0902 24.1232C22.4132 25.1098 21.4166 25.9066 20.0448 26.4923L20.8302 28.3316C22.4925 27.6218 23.814 26.6033 24.7393 25.2547L23.0902 24.1232ZM20.0474 26.4912C18.6933 27.0649 17.0138 27.3707 14.9787 27.3707V29.3707C17.205 29.3707 19.1646 29.0373 20.8276 28.3327L20.0474 26.4912ZM14.9787 27.3707C12.9649 27.3707 11.2591 27.062 9.83773 26.4749L9.07421 28.3234C10.7892 29.0318 12.7652 29.3707 14.9787 29.3707V27.3707ZM9.83951 26.4756C8.43992 25.8944 7.38072 25.0512 6.62231 23.9541L4.97713 25.0914C5.97439 26.534 7.35269 27.6085 9.07243 28.3227L9.83951 26.4756ZM6.62664 23.9604C5.8874 22.8733 5.47077 21.4904 5.43156 19.7572L3.43207 19.8024C3.47809 21.8363 3.9734 23.6153 4.97279 25.085L6.62664 23.9604ZM4.43182 20.7798H9.78835V18.7798H4.43182V20.7798ZM8.79065 19.8476C8.86087 20.8808 9.16295 21.8095 9.744 22.5805L11.3412 21.3768C11.0359 20.9717 10.8352 20.4346 10.7861 19.712L8.79065 19.8476ZM9.75389 22.5934C10.3254 23.3268 11.0772 23.8673 11.9756 24.2247L12.7147 22.3663C12.1132 22.127 11.6632 21.7897 11.3313 21.3639L9.75389 22.5934ZM11.9883 24.2296C12.8789 24.5698 13.8593 24.7301 14.9148 24.7301V22.7301C14.0612 22.7301 13.3285 22.6006 12.702 22.3613L11.9883 24.2296ZM14.9148 24.7301C15.9463 24.7301 16.8903 24.5804 17.724 24.2511L16.9891 22.391C16.4421 22.6071 15.7583 22.7301 14.9148 22.7301V24.7301ZM17.7201 24.2526C18.5495 23.9289 19.25 23.4552 19.765 22.8029L18.1952 21.5636C17.9431 21.8829 17.5613 22.1677 16.993 22.3894L17.7201 24.2526ZM19.765 22.8029C20.2907 22.137 20.5554 21.3594 20.5554 20.5085H18.5554C18.5554 20.919 18.4366 21.2579 18.1952 21.5636L19.765 22.8029ZM20.5554 20.5085C20.5554 19.7064 20.3104 18.9707 19.7848 18.3682L18.2777 19.6829C18.451 19.8816 18.5554 20.1345 18.5554 20.5085H20.5554ZM19.7928 18.3774C19.3204 17.8224 18.6701 17.4024 17.9124 17.0819L17.1331 18.9238C17.7049 19.1657 18.0602 19.4276 18.2697 19.6737L19.7928 18.3774ZM17.9166 17.0837C17.1937 16.7739 16.3313 16.5024 15.3409 16.2636L14.8722 18.2079C15.7908 18.4294 16.5393 18.6693 17.1288 18.922L17.9166 17.0837ZM15.3501 16.2659L12.4992 15.55L12.0121 17.4898L14.863 18.2057L15.3501 16.2659ZM12.492 15.5482C10.3943 15.038 8.81571 14.2584 7.6932 13.2557L6.36078 14.7472C7.79509 16.0285 9.70226 16.9279 12.0193 17.4916L12.492 15.5482ZM7.6932 13.2557C6.65707 12.33 6.11471 11.0801 6.12215 9.39077L4.12217 9.38196C4.11257 11.562 4.84009 13.3887 6.36078 14.7472L7.6932 13.2557ZM6.12214 9.38099C6.11466 7.98793 6.48152 6.81358 7.19954 5.81553L5.57603 4.64754C4.5895 6.01881 4.11262 7.61434 4.12217 9.39174L6.12214 9.38099ZM7.19677 5.81936C7.94201 4.79373 8.97533 3.97383 10.3342 3.37163L9.5238 1.54315C7.88262 2.27049 6.55515 3.30002 5.5788 4.64371L7.19677 5.81936ZM10.3342 3.37163C11.6874 2.7719 13.2505 2.46023 15.0426 2.46023V0.460226C13.0166 0.460226 11.1706 0.813324 9.5238 1.54315L10.3342 3.37163ZM15.0426 2.46023C16.8727 2.46023 18.421 2.7732 19.7137 3.36628L20.5477 1.54849C18.9426 0.812026 17.0989 0.460226 15.0426 0.460226V2.46023ZM19.7157 3.3672C21.0271 3.96539 22.0104 4.77859 22.7057 5.79579L24.3568 4.66728C23.4327 3.31516 22.1491 2.27893 20.5457 1.54757L19.7157 3.3672ZM22.7057 5.79579C23.3952 6.80473 23.7616 7.98269 23.7842 9.3644L25.784 9.33162C25.7555 7.59401 25.2866 6.02765 24.3568 4.66728L22.7057 5.79579ZM24.7841 8.34801H19.4787V10.348H24.7841V8.34801ZM30.5631 28H29.5631V29H30.5631V28ZM30.5631 8.36364V7.36364H29.5631V8.36364H30.5631ZM36.0092 8.36364H37.0092V7.36364H36.0092V8.36364ZM36.0092 28V29H37.0092V28H36.0092ZM31.2151 5.02699L30.5244 5.7501L30.5299 5.75537L30.5355 5.76055L31.2151 5.02699ZM31.2151 1.14062L31.9002 1.86914L31.9005 1.86882L31.2151 1.14062ZM35.37 1.14062L34.6792 1.86373L34.6847 1.869L34.6903 1.87419L35.37 1.14062ZM35.37 5.02699L36.055 5.75551L36.0553 5.75519L35.37 5.02699ZM31.5631 28V8.36364H29.5631V28H31.5631ZM30.5631 9.36364H36.0092V7.36364H30.5631V9.36364ZM35.0092 8.36364V28H37.0092V8.36364H35.0092ZM36.0092 27H30.5631V29H36.0092V27ZM33.2989 4.83239C32.7344 4.83239 32.2844 4.65443 31.8948 4.29343L30.5355 5.76055C31.3049 6.47341 32.2442 6.83239 33.2989 6.83239V4.83239ZM31.9059 4.30388C31.5232 3.9384 31.3586 3.54403 31.3586 3.07102H29.3586C29.3586 4.11506 29.765 5.02467 30.5244 5.7501L31.9059 4.30388ZM31.3586 3.07102C31.3586 2.61061 31.5199 2.22667 31.9002 1.86914L30.5301 0.412105C29.7683 1.12844 29.3586 2.03144 29.3586 3.07102H31.3586ZM31.9005 1.86882C32.291 1.50129 32.7391 1.32244 33.2989 1.32244V-0.677558C32.2394 -0.677558 31.2983 -0.310952 30.5298 0.412426L31.9005 1.86882ZM33.2989 1.32244C33.8585 1.32244 34.2994 1.50094 34.6792 1.86373L36.0607 0.417515C35.2984 -0.310599 34.3586 -0.677558 33.2989 -0.677558V1.32244ZM34.6903 1.87419C35.0779 2.23324 35.2393 2.61579 35.2393 3.07102H37.2393C37.2393 2.02625 36.8211 1.12187 36.0496 0.407063L34.6903 1.87419ZM35.2393 3.07102C35.2393 3.53892 35.0745 3.93185 34.6846 4.29879L36.0553 5.75519C36.8245 5.03121 37.2393 4.12017 37.2393 3.07102H35.2393ZM34.6849 4.29847C34.306 4.65475 33.8633 4.83239 33.2989 4.83239V6.83239C34.3539 6.83239 35.2918 6.47309 36.055 5.75551L34.6849 4.29847ZM42.1717 28H41.1717V29H42.1717V28ZM42.1717 8.36364V7.36364H41.1717V8.36364H42.1717ZM47.3621 8.36364H48.3621V7.36364H47.3621V8.36364ZM47.3621 11.8281H46.3621V12.8281H47.3621V11.8281ZM47.5922 11.8281V12.8281H48.298L48.5344 12.1631L47.5922 11.8281ZM49.6376 9.10511L49.0661 8.28451L49.0661 8.28451L49.6376 9.10511ZM56.5027 9.1179L55.9228 9.93264L55.9278 9.93609L56.5027 9.1179ZM58.3947 11.8281L57.4308 12.0943L57.6334 12.8281H58.3947V11.8281ZM58.5993 11.8281V12.8281H59.3047L59.5414 12.1636L58.5993 11.8281ZM60.7726 9.13068L61.313 9.97208L61.3147 9.97098L60.7726 9.13068ZM68.98 9.85938L68.2651 10.5586L68.2703 10.5639L68.98 9.85938ZM70.7058 28V29H71.7058V28H70.7058ZM65.2726 28H64.2726V29H65.2726V28ZM64.4033 13.4134L63.7179 14.1416L63.7179 14.1416L64.4033 13.4134ZM59.9161 13.5412L60.6629 14.2062L60.6674 14.2011L59.9161 13.5412ZM59.0851 28V29H60.0851V28H59.0851ZM53.8053 28H52.8053V29H53.8053V28ZM52.9743 13.4517L52.2512 14.1425L52.2566 14.148L52.9743 13.4517ZM49.1774 13.0554L49.7074 13.9034L49.7114 13.9009L49.1774 13.0554ZM48.0396 14.321L48.9255 14.785L48.9284 14.7793L48.0396 14.321ZM47.6178 28V29H48.6178V28H47.6178ZM43.1717 28V8.36364H41.1717V28H43.1717ZM42.1717 9.36364H47.3621V7.36364H42.1717V9.36364ZM46.3621 8.36364V11.8281H48.3621V8.36364H46.3621ZM47.3621 12.8281H47.5922V10.8281H47.3621V12.8281ZM48.5344 12.1631C48.8773 11.1987 49.4346 10.4651 50.2091 9.92572L49.0661 8.28451C47.9316 9.07467 47.1253 10.1564 46.65 11.4931L48.5344 12.1631ZM50.2091 9.92572C50.9728 9.3939 51.9083 9.10795 53.0638 9.10795V7.10795C51.5601 7.10795 50.2116 7.48678 49.0661 8.28451L50.2091 9.92572ZM53.0638 9.10795C54.2368 9.10795 55.1721 9.3983 55.9228 9.93262L57.0825 8.30317C55.9412 7.4909 54.5839 7.10795 53.0638 7.10795V9.10795ZM55.9278 9.93609C56.679 10.464 57.1755 11.1698 57.4308 12.0943L59.3587 11.562C58.9833 10.2024 58.2185 9.10136 57.0776 8.2997L55.9278 9.93609ZM58.3947 12.8281H58.5993V10.8281H58.3947V12.8281ZM59.5414 12.1636C59.8643 11.2565 60.4422 10.5314 61.313 9.97208L60.2322 8.28928C59.0064 9.07659 58.1354 10.1497 57.6572 11.4927L59.5414 12.1636ZM61.3147 9.97098C62.1874 9.40793 63.2416 9.10795 64.5183 9.10795V7.10795C62.9143 7.10795 61.4714 7.48979 60.2305 8.29038L61.3147 9.97098ZM64.5183 9.10795C66.1176 9.10795 67.3349 9.60761 68.2651 10.5586L69.6949 9.16014C68.3409 7.77591 66.5838 7.10795 64.5183 7.10795V9.10795ZM68.2703 10.5639C69.1833 11.4837 69.7058 12.8437 69.7058 14.794H71.7058C71.7058 12.483 71.0778 10.5533 69.6897 9.15488L68.2703 10.5639ZM69.7058 14.794V28H71.7058V14.794H69.7058ZM70.7058 27H65.2726V29H70.7058V27ZM66.2726 28V15.8679H64.2726V28H66.2726ZM66.2726 15.8679C66.2726 14.6068 65.9347 13.4814 65.0886 12.6852L63.7179 14.1416C64.0309 14.4362 64.2726 14.9472 64.2726 15.8679H66.2726ZM65.0886 12.6852C64.3057 11.9483 63.3284 11.5952 62.23 11.5952V13.5952C62.8702 13.5952 63.3417 13.7875 63.7179 14.1416L65.0886 12.6852ZM62.23 11.5952C61.0099 11.5952 59.9428 11.9955 59.1647 12.8813L60.6674 14.2011C60.9973 13.8255 61.4728 13.5952 62.23 13.5952V11.5952ZM59.1692 12.8762C58.4172 13.7208 58.0851 14.7989 58.0851 16.0085H60.0851C60.0851 15.1727 60.307 14.6059 60.6629 14.2062L59.1692 12.8762ZM58.0851 16.0085V28H60.0851V16.0085H58.0851ZM59.0851 27H53.8053V29H59.0851V27ZM54.8053 28V15.7528H52.8053V28H54.8053ZM54.8053 15.7528C54.8053 14.5879 54.4638 13.5509 53.692 12.7554L52.2566 14.148C52.5927 14.4945 52.8053 14.9916 52.8053 15.7528H54.8053ZM53.6974 12.761C52.9374 11.9653 51.9419 11.5952 50.8138 11.5952V13.5952C51.4754 13.5952 51.9203 13.7961 52.2512 14.1424L53.6974 12.761ZM50.8138 11.5952C50.0302 11.5952 49.2977 11.7967 48.6434 12.2099L49.7114 13.9009C50.0287 13.7005 50.3872 13.5952 50.8138 13.5952V11.5952ZM48.6474 12.2074C48.0041 12.6095 47.5068 13.1724 47.1508 13.8627L48.9284 14.7793C49.135 14.3787 49.3962 14.0979 49.7074 13.9034L48.6474 12.2074ZM47.1538 13.857C46.7842 14.5625 46.6178 15.3584 46.6178 16.2131H48.6178C48.6178 15.6189 48.7325 15.1534 48.9255 14.785L47.1538 13.857ZM46.6178 16.2131V28H48.6178V16.2131H46.6178ZM47.6178 27H42.1717V29H47.6178V27ZM87.3673 8.36364H88.3673V7.36364H87.3673V8.36364ZM87.3673 12.4545V13.4545H88.3673V12.4545H87.3673ZM75.248 12.4545H74.248V13.4545H75.248V12.4545ZM75.248 8.36364V7.36364H74.248V8.36364H75.248ZM78.0222 28H77.0222V29H78.0222V28ZM78.8531 3.40341L77.9956 2.8889L77.9922 2.89468L78.8531 3.40341ZM81.1543 1.29403L80.7197 0.393374L80.7197 0.393374L81.1543 1.29403ZM86.7537 0.78267L86.5716 1.76595L86.5738 1.76635L86.7537 0.78267ZM88.3134 1.12784L89.2863 1.35891L89.5043 0.441087L88.6007 0.170015L88.3134 1.12784ZM87.3418 5.21875L87.037 6.17117L88.0652 6.50022L88.3147 5.44982L87.3418 5.21875ZM86.5491 5.02699L86.3583 6.00862L86.3633 6.00956L86.5491 5.02699ZM83.9284 5.5L84.6865 6.15228L84.6938 6.1436L83.9284 5.5ZM83.4554 28V29H84.4554V28H83.4554ZM86.3673 8.36364V12.4545H88.3673V8.36364H86.3673ZM87.3673 11.4545H75.248V13.4545H87.3673V11.4545ZM76.248 12.4545V8.36364H74.248V12.4545H76.248ZM75.248 9.36364H87.3673V7.36364H75.248V9.36364ZM79.0222 28V6.9446H77.0222V28H79.0222ZM79.0222 6.9446C79.0222 5.64667 79.275 4.65517 79.7141 3.91214L77.9922 2.89468C77.3233 4.02664 77.0222 5.39594 77.0222 6.9446H79.0222ZM79.7106 3.9179C80.1742 3.14521 80.7953 2.5775 81.5888 2.19469L80.7197 0.393374C79.57 0.948061 78.657 1.7866 77.9956 2.88891L79.7106 3.9179ZM81.5888 2.19469C82.4064 1.80023 83.3581 1.59091 84.4653 1.59091V-0.409093C83.101 -0.409093 81.8453 -0.149665 80.7197 0.393374L81.5888 2.19469ZM84.4653 1.59091C85.2506 1.59091 85.9513 1.65109 86.5716 1.76595L86.9358 -0.200611C86.1754 -0.34143 85.3505 -0.409093 84.4653 -0.409093V1.59091ZM86.5738 1.76635C87.2645 1.89271 87.74 1.99987 88.026 2.08567L88.6007 0.170015C88.2049 0.0512682 87.6406 -0.0716887 86.9336 -0.201007L86.5738 1.76635ZM87.3404 0.896768L86.3688 4.98768L88.3147 5.44982L89.2863 1.35891L87.3404 0.896768ZM87.6465 4.26633C87.3818 4.18161 87.0749 4.10872 86.735 4.04442L86.3633 6.00956C86.6541 6.06458 86.8756 6.11953 87.037 6.17117L87.6465 4.26633ZM86.74 4.04537C86.3681 3.97305 85.9887 3.9375 85.6031 3.9375V5.9375C85.8652 5.9375 86.1166 5.96161 86.3583 6.0086L86.74 4.04537ZM85.6031 3.9375C84.6905 3.9375 83.7613 4.14498 83.163 4.8564L84.6938 6.1436C84.7262 6.10502 84.9135 5.9375 85.6031 5.9375V3.9375ZM83.1704 4.84776C82.649 5.45375 82.4554 6.23246 82.4554 7.04688H84.4554C84.4554 6.53174 84.5772 6.27921 84.6864 6.15224L83.1704 4.84776ZM82.4554 7.04688V28H84.4554V7.04688H82.4554ZM83.4554 27H78.0222V29H83.4554V27ZM93.9134 35.1974L94.0935 34.2137L94.0824 34.2118L93.9134 35.1974ZM92.4305 34.8011L91.4731 34.5121L91.2113 35.3795L92.0487 35.7254L92.4305 34.8011ZM93.6577 30.7358L93.9509 29.7797L92.9907 29.4853L92.7004 30.4468L93.6577 30.7358ZM95.3836 31.0554L95.3503 32.0548L95.3508 32.0549L95.3836 31.0554ZM96.7259 30.6974L96.1712 29.8653L96.1626 29.8712L96.7259 30.6974ZM97.6592 29.3935L98.5912 29.7559L98.5925 29.7524L97.6592 29.3935ZM97.9788 28.5625L98.9121 28.9215L99.0437 28.5793L98.923 28.2332L97.9788 28.5625ZM90.9347 8.36364V7.36364H89.5269L89.9905 8.69292L90.9347 8.36364ZM96.662 8.36364L97.6245 8.0923L97.4191 7.36364H96.662V8.36364ZM100.727 22.7841L99.7649 23.0554L99.9703 23.7841H100.727V22.7841ZM100.932 22.7841V23.7841H101.687L101.894 23.0578L100.932 22.7841ZM105.036 8.36364V7.36364H104.28L104.074 8.08993L105.036 8.36364ZM110.801 8.36364L111.745 8.69463L112.212 7.36364H110.801V8.36364ZM103.169 30.1222L102.225 29.7912L102.224 29.7945L103.169 30.1222ZM101.673 32.8835L100.894 32.2567L100.887 32.2661L101.673 32.8835ZM99.3083 34.7116L98.9006 33.7985L98.8939 33.8016L99.3083 34.7116ZM95.8566 34.3636C95.2195 34.3636 94.6325 34.3125 94.0935 34.2138L93.7333 36.1811C94.4045 36.304 95.1131 36.3636 95.8566 36.3636V34.3636ZM94.0824 34.2118C93.5306 34.1172 93.1137 34.0014 92.8122 33.8769L92.0487 35.7254C92.5314 35.9248 93.1031 36.0731 93.7445 36.1831L94.0824 34.2118ZM93.3878 35.0901L94.6151 31.0248L92.7004 30.4468L91.4731 34.5121L93.3878 35.0901ZM93.3645 31.6918C94.0639 31.9063 94.7286 32.0341 95.3503 32.0548L95.4169 30.056C95.0159 30.0426 94.53 29.9573 93.9509 29.7797L93.3645 31.6918ZM95.3508 32.0549C96.0506 32.0778 96.7141 31.9158 97.2893 31.5237L96.1626 29.8712C95.9877 29.9904 95.7564 30.0671 95.4164 30.0559L95.3508 32.0549ZM97.2806 31.5295C97.8942 31.1204 98.3087 30.4822 98.5912 29.7559L96.7272 29.031C96.5323 29.532 96.3247 29.7631 96.1712 29.8654L97.2806 31.5295ZM98.5925 29.7524L98.9121 28.9215L97.0454 28.2035L96.7258 29.0345L98.5925 29.7524ZM98.923 28.2332L91.879 8.03435L89.9905 8.69292L97.0345 28.8918L98.923 28.2332ZM90.9347 9.36364H96.662V7.36364H90.9347V9.36364ZM95.6995 8.63497L99.7649 23.0554L101.69 22.5128L97.6245 8.0923L95.6995 8.63497ZM100.727 23.7841H100.932V21.7841H100.727V23.7841ZM101.894 23.0578L105.997 8.63734L104.074 8.08993L99.9701 22.5104L101.894 23.0578ZM105.036 9.36364H110.801V7.36364H105.036V9.36364ZM109.858 8.03264L102.225 29.7912L104.113 30.4532L111.745 8.69463L109.858 8.03264ZM102.224 29.7945C101.891 30.7549 101.445 31.5715 100.894 32.2568L102.453 33.5103C103.163 32.6273 103.714 31.6031 104.114 30.4498L102.224 29.7945ZM100.887 32.2661C100.369 32.9259 99.7125 33.4361 98.9007 33.7985L99.716 35.6248C100.813 35.1349 101.734 34.4264 102.46 33.501L100.887 32.2661ZM98.8939 33.8016C98.1009 34.1627 97.0993 34.3636 95.8566 34.3636V36.3636C97.3071 36.3636 98.6067 36.1299 99.7227 35.6217L98.8939 33.8016ZM139.826 9.34801L138.83 9.4467L138.92 10.348H139.826V9.34801ZM133.063 6.47159L133.432 7.40101L133.443 7.39653L133.063 6.47159ZM131.631 7.5071L130.831 6.90705L130.824 6.91709L131.631 7.5071ZM131.145 9.01562L132.145 9.05196L132.145 9.0338V9.01562H131.145ZM131.439 10.2429L130.585 10.7635L130.59 10.771L130.595 10.7784L131.439 10.2429ZM132.347 11.1506L131.792 11.9826L131.799 11.9869L131.805 11.9911L132.347 11.1506ZM133.676 11.8026L133.327 12.7395L133.334 12.7421L133.341 12.7447L133.676 11.8026ZM135.287 12.2628L135.52 11.2902L135.513 11.2885L135.506 11.2869L135.287 12.2628ZM137.639 12.8253L137.407 13.7979L137.414 13.7995L137.421 13.8011L137.639 12.8253ZM140.784 13.848L140.377 14.7611L140.377 14.7611L140.784 13.848ZM143.264 15.4205L143.929 14.6735L143.929 14.6735L143.264 15.4205ZM144.888 17.6193L143.978 18.0331L143.981 18.0407L144.888 17.6193ZM145.489 20.5213L146.489 20.5266L146.489 20.5135L145.489 20.5213ZM144.262 24.6889L143.438 24.1219L143.437 24.1232L144.262 24.6889ZM140.784 27.4119L141.175 28.3327L141.177 28.3316L140.784 27.4119ZM129.803 27.3991L129.419 28.3227L129.421 28.3234L129.803 27.3991ZM126.147 24.5227L125.32 25.0851L125.324 25.0914L126.147 24.5227ZM124.779 19.7798V18.7798H123.756L123.779 19.8024L124.779 19.7798ZM130.135 19.7798L131.133 19.712L131.07 18.7798H130.135V19.7798ZM130.889 21.9787L130.091 22.5805L130.096 22.587L130.101 22.5934L130.889 21.9787ZM132.692 23.2955L132.322 24.2247L132.335 24.2296L132.692 23.2955ZM137.703 23.321L137.34 22.3894L137.336 22.391L137.703 23.321ZM139.327 22.1832L140.112 22.8029L140.112 22.8029L139.327 22.1832ZM139.378 19.0256L138.617 19.6737L138.625 19.6829L139.378 19.0256ZM137.87 18.0028L137.476 18.922L137.48 18.9238L137.87 18.0028ZM135.453 17.2358L135.21 18.2057L135.219 18.2079L135.453 17.2358ZM132.603 16.5199L132.846 15.55L132.839 15.5482L132.603 16.5199ZM127.374 14.0014L126.708 14.7472L126.708 14.7472L127.374 14.0014ZM125.469 9.38636L126.469 9.39077L126.469 9.38099L125.469 9.38636ZM126.735 5.23153L125.926 4.6437L125.923 4.64754L126.735 5.23153ZM140.478 2.45739L140.061 3.36628L140.063 3.3672L140.478 2.45739ZM143.878 5.23153L143.053 5.79579L143.053 5.79579L143.878 5.23153ZM145.131 9.34801V10.348H146.147L146.131 9.33162L145.131 9.34801ZM140.821 9.24932C140.693 7.96029 140.124 6.89212 139.102 6.13932L137.916 7.74988C138.445 8.13913 138.754 8.67323 138.83 9.4467L140.821 9.24932ZM139.102 6.13932C138.1 5.40167 136.815 5.08807 135.351 5.08807V7.08807C136.547 7.08807 137.367 7.34548 137.916 7.74988L139.102 6.13932ZM135.351 5.08807C134.359 5.08807 133.459 5.22757 132.683 5.54665L133.443 7.39653C133.911 7.20425 134.536 7.08807 135.351 7.08807V5.08807ZM132.694 5.54224C131.936 5.84317 131.295 6.28849 130.831 6.9071L132.431 8.1071C132.632 7.83935 132.945 7.59433 133.432 7.40094L132.694 5.54224ZM130.824 6.91709C130.371 7.53603 130.145 8.24664 130.145 9.01562H132.145C132.145 8.65961 132.243 8.36454 132.438 8.09712L130.824 6.91709ZM130.146 8.97929C130.123 9.61451 130.256 10.2232 130.585 10.7635L132.293 9.72229C132.196 9.56372 132.134 9.35424 132.145 9.05196L130.146 8.97929ZM130.595 10.7784C130.899 11.2587 131.306 11.6583 131.792 11.9826L132.902 10.3185C132.621 10.1315 132.422 9.92599 132.284 9.70736L130.595 10.7784ZM131.805 11.9911C132.259 12.2834 132.768 12.5312 133.327 12.7395L134.026 10.8656C133.579 10.6989 133.202 10.5121 132.889 10.31L131.805 11.9911ZM133.341 12.7447C133.886 12.9385 134.462 13.1028 135.069 13.2386L135.506 11.2869C134.971 11.1671 134.473 11.0246 134.012 10.8605L133.341 12.7447ZM135.055 13.2354L137.407 13.7979L137.872 11.8527L135.52 11.2902L135.055 13.2354ZM137.421 13.8011C138.506 14.044 139.49 14.3652 140.377 14.7611L141.192 12.9349C140.17 12.4786 139.057 12.118 137.858 11.8494L137.421 13.8011ZM140.377 14.7611C141.248 15.1503 141.986 15.621 142.6 16.1674L143.929 14.6735C143.145 13.9756 142.229 13.398 141.192 12.9349L140.377 14.7611ZM142.6 16.1674C143.195 16.6977 143.652 17.3175 143.978 18.0331L145.798 17.2055C145.357 16.2336 144.731 15.3875 143.929 14.6735L142.6 16.1674ZM143.981 18.0407C144.303 18.7344 144.481 19.5567 144.489 20.5291L146.489 20.5135C146.479 19.3041 146.257 18.1918 145.795 17.1979L143.981 18.0407ZM144.489 20.516C144.481 21.943 144.12 23.1308 143.438 24.1219L145.085 25.256C146.022 23.8947 146.479 22.3041 146.489 20.5266L144.489 20.516ZM143.437 24.1232C142.76 25.1098 141.763 25.9066 140.392 26.4923L141.177 28.3316C142.839 27.6218 144.161 26.6033 145.086 25.2547L143.437 24.1232ZM140.394 26.4912C139.04 27.0649 137.361 27.3707 135.326 27.3707V29.3707C137.552 29.3707 139.512 29.0373 141.175 28.3327L140.394 26.4912ZM135.326 27.3707C133.312 27.3707 131.606 27.062 130.185 26.4749L129.421 28.3234C131.136 29.0318 133.112 29.3707 135.326 29.3707V27.3707ZM130.186 26.4756C128.787 25.8944 127.728 25.0512 126.969 23.9541L125.324 25.0914C126.321 26.534 127.7 27.6085 129.419 28.3227L130.186 26.4756ZM126.974 23.9604C126.234 22.8733 125.818 21.4904 125.778 19.7572L123.779 19.8024C123.825 21.8363 124.32 23.6153 125.32 25.085L126.974 23.9604ZM124.779 20.7798H130.135V18.7798H124.779V20.7798ZM129.138 19.8476C129.208 20.8808 129.51 21.8095 130.091 22.5805L131.688 21.3768C131.383 20.9717 131.182 20.4346 131.133 19.712L129.138 19.8476ZM130.101 22.5934C130.672 23.3268 131.424 23.8673 132.322 24.2247L133.062 22.3663C132.46 22.127 132.01 21.7897 131.678 21.3639L130.101 22.5934ZM132.335 24.2296C133.226 24.5698 134.206 24.7301 135.262 24.7301V22.7301C134.408 22.7301 133.675 22.6006 133.049 22.3613L132.335 24.2296ZM135.262 24.7301C136.293 24.7301 137.237 24.5804 138.071 24.2511L137.336 22.391C136.789 22.6071 136.105 22.7301 135.262 22.7301V24.7301ZM138.067 24.2526C138.896 23.9289 139.597 23.4552 140.112 22.8029L138.542 21.5636C138.29 21.8829 137.908 22.1677 137.34 22.3894L138.067 24.2526ZM140.112 22.8029C140.638 22.137 140.902 21.3594 140.902 20.5085H138.902C138.902 20.919 138.783 21.2579 138.542 21.5636L140.112 22.8029ZM140.902 20.5085C140.902 19.7064 140.657 18.9707 140.132 18.3682L138.625 19.6829C138.798 19.8816 138.902 20.1345 138.902 20.5085H140.902ZM140.14 18.3774C139.667 17.8224 139.017 17.4024 138.259 17.0819L137.48 18.9238C138.052 19.1657 138.407 19.4276 138.617 19.6737L140.14 18.3774ZM138.264 17.0837C137.541 16.7739 136.678 16.5024 135.688 16.2636L135.219 18.2079C136.138 18.4294 136.886 18.6693 137.476 18.922L138.264 17.0837ZM135.697 16.2659L132.846 15.55L132.359 17.4898L135.21 18.2057L135.697 16.2659ZM132.839 15.5482C130.741 15.038 129.163 14.2584 128.04 13.2557L126.708 14.7472C128.142 16.0285 130.049 16.9279 132.366 17.4916L132.839 15.5482ZM128.04 13.2557C127.004 12.33 126.462 11.0801 126.469 9.39077L124.469 9.38196C124.459 11.562 125.187 13.3887 126.708 14.7472L128.04 13.2557ZM126.469 9.38099C126.462 7.98793 126.828 6.81358 127.546 5.81553L125.923 4.64754C124.936 6.01881 124.459 7.61434 124.469 9.39174L126.469 9.38099ZM127.544 5.81936C128.289 4.79373 129.322 3.97383 130.681 3.37163L129.871 1.54315C128.23 2.27049 126.902 3.30002 125.926 4.64371L127.544 5.81936ZM130.681 3.37163C132.034 2.7719 133.597 2.46023 135.389 2.46023V0.460226C133.363 0.460226 131.517 0.813324 129.871 1.54315L130.681 3.37163ZM135.389 2.46023C137.22 2.46023 138.768 2.7732 140.061 3.36628L140.895 1.54849C139.289 0.812026 137.446 0.460226 135.389 0.460226V2.46023ZM140.063 3.3672C141.374 3.96539 142.357 4.77859 143.053 5.79579L144.704 4.66728C143.78 3.31516 142.496 2.27893 140.893 1.54757L140.063 3.3672ZM143.053 5.79579C143.742 6.80473 144.108 7.98269 144.131 9.3644L146.131 9.33162C146.102 7.59401 145.633 6.02765 144.704 4.66728L143.053 5.79579ZM145.131 8.34801H139.826V10.348H145.131V8.34801ZM161.355 8.36364H162.355V7.36364H161.355V8.36364ZM161.355 12.4545V13.4545H162.355V12.4545H161.355ZM149.529 12.4545H148.529V13.4545H149.529V12.4545ZM149.529 8.36364V7.36364H148.529V8.36364H149.529ZM152.214 3.65909V2.65909H151.214V3.65909H152.214ZM157.66 3.65909H158.66V2.65909H157.66V3.65909ZM157.89 23.142L157.012 23.6209L157.019 23.6323L157.89 23.142ZM158.529 23.7173L158.153 24.6438L158.163 24.6477L158.529 23.7173ZM160.268 23.8196L160.432 24.806L160.448 24.8033L160.464 24.8002L160.268 23.8196ZM160.856 23.7045L161.834 23.4978L161.632 22.5416L160.672 22.7217L160.856 23.7045ZM161.713 27.7571L162.011 28.7116L162.879 28.4403L162.691 27.5503L161.713 27.7571ZM160.562 28.0511L160.343 27.0753L160.335 27.0771L160.327 27.0791L160.562 28.0511ZM158.759 28.2685L158.723 27.2691L158.721 27.2692L158.759 28.2685ZM155.308 27.7443L154.929 28.67L154.932 28.6711L155.308 27.7443ZM153.019 25.8778L153.859 25.3349L153.859 25.3349L153.019 25.8778ZM152.214 22.6818L153.214 22.6884V22.6818H152.214ZM160.355 8.36364V12.4545H162.355V8.36364H160.355ZM161.355 11.4545H149.529V13.4545H161.355V11.4545ZM150.529 12.4545V8.36364H148.529V12.4545H150.529ZM149.529 9.36364H161.355V7.36364H149.529V9.36364ZM152.214 4.65909H157.66V2.65909H152.214V4.65909ZM156.66 3.65909V21.9659H158.66V3.65909H156.66ZM156.66 21.9659C156.66 22.5498 156.746 23.1321 157.012 23.6209L158.768 22.6632C158.728 22.5895 158.66 22.3877 158.66 21.9659H156.66ZM157.019 23.6323C157.275 24.0889 157.657 24.4422 158.153 24.6438L158.906 22.7909C158.856 22.7708 158.812 22.7406 158.762 22.6518L157.019 23.6323ZM158.163 24.6477C158.583 24.8131 159.035 24.8835 159.501 24.8835V22.8835C159.234 22.8835 159.038 22.8431 158.896 22.7869L158.163 24.6477ZM159.501 24.8835C159.812 24.8835 160.123 24.8575 160.432 24.806L160.104 22.8332C159.901 22.8669 159.701 22.8835 159.501 22.8835V24.8835ZM160.464 24.8002C160.719 24.7493 160.91 24.7119 161.04 24.6874L160.672 22.7217C160.529 22.7484 160.329 22.7877 160.072 22.839L160.464 24.8002ZM159.878 23.9113L160.734 27.9639L162.691 27.5503L161.834 23.4978L159.878 23.9113ZM161.414 26.8026C161.18 26.8757 160.828 26.9667 160.343 27.0753L160.781 29.0269C161.285 28.9139 161.699 28.8089 162.011 28.7116L161.414 26.8026ZM160.327 27.0791C159.918 27.1779 159.388 27.2451 158.723 27.2691L158.796 29.2678C159.546 29.2407 160.218 29.163 160.797 29.0232L160.327 27.0791ZM158.721 27.2692C157.518 27.3161 156.514 27.154 155.683 26.8175L154.932 28.6711C156.079 29.1358 157.376 29.3231 158.798 29.2677L158.721 27.2692ZM155.686 26.8186C154.885 26.4911 154.287 25.9974 153.859 25.3349L152.18 26.4207C152.842 27.4458 153.771 28.1964 154.929 28.67L155.686 26.8186ZM153.859 25.3349C153.446 24.6952 153.206 23.8348 153.214 22.6884L151.214 22.6752C151.205 24.1027 151.502 25.373 152.18 26.4207L153.859 25.3349ZM153.214 22.6818V3.65909H151.214V22.6818H153.214ZM170.211 27.1179L169.702 27.9785L169.708 27.982L170.211 27.1179ZM166.875 23.5639L165.985 24.021L165.986 24.0231L166.875 23.5639ZM166.875 12.9403L167.763 13.3995L167.764 13.3975L166.875 12.9403ZM170.211 9.38636L170.717 10.2492L170.718 10.2483L170.211 9.38636ZM180.503 9.38636L179.993 10.247L179.999 10.2505L180.503 9.38636ZM183.852 12.9403L182.963 13.3975L182.964 13.3995L183.852 12.9403ZM183.852 23.5639L184.74 24.0231L184.741 24.021L183.852 23.5639ZM180.503 27.1179L181.008 27.9808L181.01 27.9798L180.503 27.1179ZM177.652 23.3977L178.297 24.1615L178.303 24.1562L177.652 23.3977ZM179.02 21.2756L178.076 20.9432L178.074 20.9512L179.02 21.2756ZM179.02 15.1648L178.074 15.4891L178.077 15.4971L179.02 15.1648ZM173.088 13.0426L172.447 12.2752L172.441 12.2796L173.088 13.0426ZM171.694 15.1648L170.751 14.8324L170.748 14.8404L171.694 15.1648ZM171.694 21.2756L170.748 21.5999L170.751 21.6079L171.694 21.2756ZM173.088 23.3977L172.441 24.1607L172.447 24.1655L172.453 24.1703L173.088 23.3977ZM175.363 27.3835C173.522 27.3835 171.985 26.9934 170.715 26.2538L169.708 27.982C171.336 28.9299 173.234 29.3835 175.363 29.3835V27.3835ZM170.721 26.2573C169.445 25.5026 168.463 24.4586 167.763 23.1048L165.986 24.0231C166.855 25.7033 168.097 27.0286 169.702 27.9785L170.721 26.2573ZM167.764 23.1068C167.064 21.7452 166.699 20.1383 166.699 18.2585H164.699C164.699 20.4015 165.117 22.3315 165.985 24.021L167.764 23.1068ZM166.699 18.2585C166.699 16.36 167.065 14.7503 167.763 13.3995L165.986 12.4812C165.116 14.1645 164.699 16.1002 164.699 18.2585H166.699ZM167.764 13.3975C168.464 12.0359 169.445 10.9942 170.717 10.2492L169.706 8.52351C168.097 9.46604 166.854 10.7936 165.985 12.4832L167.764 13.3975ZM170.718 10.2483C171.988 9.50162 173.523 9.10795 175.363 9.10795V7.10795C173.232 7.10795 171.333 7.56656 169.704 8.52443L170.718 10.2483ZM175.363 9.10795C177.204 9.10795 178.734 9.50169 179.993 10.247L181.012 8.52574C179.391 7.5665 177.495 7.10795 175.363 7.10795V9.10795ZM179.999 10.2505C181.279 10.9959 182.264 12.0375 182.963 13.3975L184.741 12.4832C183.872 10.792 182.624 9.46432 181.006 8.52221L179.999 10.2505ZM182.964 13.3995C183.662 14.7503 184.028 16.36 184.028 18.2585H186.028C186.028 16.1002 185.61 14.1645 184.74 12.4812L182.964 13.3995ZM184.028 18.2585C184.028 20.1383 183.662 21.7452 182.963 23.1068L184.741 24.021C185.61 22.3315 186.028 20.4015 186.028 18.2585H184.028ZM182.964 23.1048C182.265 24.4571 181.279 25.5009 179.996 26.256L181.01 27.9798C182.624 27.0303 183.871 25.7048 184.74 24.0231L182.964 23.1048ZM179.997 26.255C178.737 26.9933 177.205 27.3835 175.363 27.3835V29.3835C177.493 29.3835 179.388 28.93 181.008 27.9807L179.997 26.255ZM175.389 25.1648C176.494 25.1648 177.486 24.8467 178.297 24.1615L177.006 22.6339C176.607 22.9715 176.091 23.1648 175.389 23.1648V25.1648ZM178.303 24.1562C179.067 23.5005 179.612 22.6316 179.966 21.5999L178.074 20.9512C177.814 21.7093 177.447 22.2552 177 22.6392L178.303 24.1562ZM179.963 21.6079C180.323 20.587 180.493 19.4531 180.493 18.2202H178.493C178.493 19.2714 178.347 20.1743 178.077 20.9432L179.963 21.6079ZM180.493 18.2202C180.493 16.9873 180.323 15.8533 179.963 14.8324L178.077 15.4971C178.347 16.266 178.493 17.169 178.493 18.2202H180.493ZM179.966 14.8404C179.612 13.8087 179.067 12.9399 178.303 12.2841L177 13.8011C177.447 14.1851 177.814 14.7311 178.074 15.4891L179.966 14.8404ZM178.303 12.2841C177.493 11.5877 176.498 11.2628 175.389 11.2628V13.2628C176.087 13.2628 176.6 13.4577 177 13.8011L178.303 12.2841ZM175.389 11.2628C174.274 11.2628 173.271 11.5863 172.447 12.2753L173.729 13.81C174.149 13.4592 174.68 13.2628 175.389 13.2628V11.2628ZM172.441 12.2796C171.67 12.9333 171.115 13.8005 170.751 14.8324L172.638 15.4971C172.905 14.7393 173.279 14.1917 173.734 13.8056L172.441 12.2796ZM170.748 14.8404C170.399 15.8588 170.234 16.9899 170.234 18.2202H172.234C172.234 17.1663 172.376 16.2605 172.64 15.4891L170.748 14.8404ZM170.234 18.2202C170.234 19.4504 170.399 20.5816 170.748 21.5999L172.64 20.9512C172.376 20.1798 172.234 19.274 172.234 18.2202H170.234ZM170.751 21.6079C171.115 22.6398 171.67 23.507 172.441 24.1607L173.734 22.6347C173.279 22.2487 172.905 21.7011 172.638 20.9432L170.751 21.6079ZM172.453 24.1703C173.278 24.8481 174.278 25.1648 175.389 25.1648V23.1648C174.676 23.1648 174.142 22.9701 173.723 22.6252L172.453 24.1703ZM190.369 28H189.369V29H190.369V28ZM190.369 8.36364V7.36364H189.369V8.36364H190.369ZM195.649 8.36364H196.649V7.36364H195.649V8.36364ZM195.649 11.7898H194.649V12.7898H195.649V11.7898ZM195.854 11.7898V12.7898H196.602L196.813 12.0716L195.854 11.7898ZM197.656 9.02841L198.25 9.83328L198.255 9.82938L197.656 9.02841ZM201.453 8.13352L201.561 7.13931L201.561 7.13931L201.453 8.13352ZM202.284 8.27415H203.284V7.49337L202.527 7.304L202.284 8.27415ZM202.284 13.1065L201.997 14.0644L203.284 14.4506V13.1065H202.284ZM197.835 13.3366L198.316 14.2136L198.32 14.2114L197.835 13.3366ZM196.352 14.7685L195.494 14.2557L195.489 14.2646L196.352 14.7685ZM195.815 28V29H196.815V28H195.815ZM191.369 28V8.36364H189.369V28H191.369ZM190.369 9.36364H195.649V7.36364H190.369V9.36364ZM194.649 8.36364V11.7898H196.649V8.36364H194.649ZM195.649 12.7898H195.854V10.7898H195.649V12.7898ZM196.813 12.0716C197.123 11.0169 197.617 10.3001 198.25 9.83326L197.063 8.22356C196.008 9.00101 195.3 10.1251 194.894 11.508L196.813 12.0716ZM198.255 9.82938C198.918 9.33382 199.677 9.08239 200.571 9.08239V7.08239C199.266 7.08239 198.082 7.46163 197.058 8.22744L198.255 9.82938ZM200.571 9.08239C200.803 9.08239 201.06 9.09689 201.346 9.12773L201.561 7.13931C201.215 7.10197 200.885 7.08239 200.571 7.08239V9.08239ZM201.346 9.12773C201.628 9.15823 201.858 9.19837 202.042 9.24429L202.527 7.304C202.233 7.2306 201.909 7.177 201.561 7.13931L201.346 9.12773ZM201.284 8.27415V13.1065H203.284V8.27415H201.284ZM202.572 12.1487C202.241 12.0497 201.827 11.9731 201.354 11.9106L201.092 13.8934C201.522 13.9502 201.816 14.01 201.997 14.0644L202.572 12.1487ZM201.354 11.9106C200.868 11.8464 200.41 11.8125 199.983 11.8125V13.8125C200.306 13.8125 200.675 13.8383 201.092 13.8934L201.354 11.9106ZM199.983 11.8125C199.032 11.8125 198.146 12.0215 197.351 12.4619L198.32 14.2114C198.786 13.9529 199.332 13.8125 199.983 13.8125V11.8125ZM197.355 12.4597C196.575 12.8868 195.951 13.4904 195.494 14.2557L197.211 15.2812C197.487 14.8193 197.851 14.4683 198.316 14.2136L197.355 12.4597ZM195.489 14.2646C195.03 15.0499 194.815 15.9355 194.815 16.8906H196.815C196.815 16.2435 196.958 15.7143 197.216 15.2723L195.489 14.2646ZM194.815 16.8906V28H196.815V16.8906H194.815ZM195.815 27H190.369V29H195.815V27ZM209.719 27.1562L209.223 28.0248L209.229 28.0282L209.719 27.1562ZM206.369 23.6534L205.481 24.1126L205.482 24.1146L206.369 23.6534ZM206.369 12.9531L205.48 12.496L205.48 12.496L206.369 12.9531ZM209.68 9.38636L209.169 8.52707L209.167 8.52842L209.68 9.38636ZM218.335 8.73438L217.985 9.67104L217.993 9.67417L218.335 8.73438ZM221.276 10.5881L220.572 11.2988L220.576 11.3024L221.276 10.5881ZM223.244 13.7074L222.308 14.0578L222.309 14.0599L223.244 13.7074ZM223.947 19.5753V20.5753H224.947V19.5753H223.947ZM207.366 19.5753H206.366V20.5753H207.366V19.5753ZM207.366 16.2003V15.2003H206.366V16.2003H207.366ZM218.821 16.2003V17.2003H219.821V16.2003H218.821ZM218.31 14.1165L217.438 14.6073L217.438 14.6073L218.31 14.1165ZM216.891 12.6974L216.385 13.5603L216.392 13.5646L216.4 13.5687L216.891 12.6974ZM212.608 12.7486L213.119 13.6081L213.122 13.6061L212.608 12.7486ZM211.125 14.2699L211.995 14.7635L211.998 14.7585L211.125 14.2699ZM210.575 16.3793L209.575 16.3683V16.3793H210.575ZM211.112 22.1065L210.22 22.5581L210.224 22.5665L211.112 22.1065ZM216.686 24.0625L216.365 23.1154L216.365 23.1154L216.686 24.0625ZM217.977 23.2955L217.288 22.5713L217.288 22.5713L217.977 23.2955ZM218.795 22.0426L218.861 21.0448L218.123 20.9961L217.86 21.688L218.795 22.0426ZM223.832 22.375L224.811 22.5817L225.049 21.4531L223.898 21.3772L223.832 22.375ZM222.26 25.5455L221.508 24.8859L221.508 24.8864L222.26 25.5455ZM219.217 27.642L219.589 28.5705L219.592 28.5692L219.217 27.642ZM214.935 27.3835C213.051 27.3835 211.488 27.0026 210.208 26.2843L209.229 28.0282C210.864 28.9462 212.779 29.3835 214.935 29.3835V27.3835ZM210.214 26.2877C208.936 25.5582 207.954 24.5336 207.257 23.1922L205.482 24.1146C206.353 25.7903 207.604 27.1009 209.223 28.0248L210.214 26.2877ZM207.258 23.1943C206.561 21.8463 206.193 20.2162 206.193 18.2713H204.193C204.193 20.4685 204.609 22.4265 205.481 24.1126L207.258 23.1943ZM206.193 18.2713C206.193 16.3823 206.559 14.7713 207.259 13.4102L205.48 12.496C204.611 14.1861 204.193 16.1206 204.193 18.2713H206.193ZM207.259 13.4102C207.961 12.0448 208.937 10.9973 210.194 10.2443L209.167 8.52842C207.578 9.47998 206.346 10.8103 205.48 12.496L207.259 13.4102ZM210.192 10.2457C211.446 9.49904 212.943 9.10795 214.717 9.10795V7.10795C212.64 7.10795 210.778 7.56914 209.169 8.52707L210.192 10.2457ZM214.717 9.10795C215.904 9.10795 216.99 9.29879 217.985 9.671L218.686 7.79775C217.448 7.33473 216.122 7.10795 214.717 7.10795V9.10795ZM217.993 9.67417C218.985 10.0349 219.841 10.5756 220.572 11.2988L221.979 9.87734C221.039 8.94713 219.935 8.25207 218.677 7.79458L217.993 9.67417ZM220.576 11.3024C221.302 12.0138 221.883 12.9239 222.308 14.0578L224.181 13.357C223.668 11.9852 222.937 10.8158 221.975 9.87378L220.576 11.3024ZM222.309 14.0599C222.725 15.1668 222.947 16.4999 222.947 18.0795H224.947C224.947 16.3183 224.701 14.7366 224.18 13.3549L222.309 14.0599ZM222.947 18.0795V19.5753H224.947V18.0795H222.947ZM223.947 18.5753H207.366V20.5753H223.947V18.5753ZM208.366 19.5753V16.2003H206.366V19.5753H208.366ZM207.366 17.2003H218.821V15.2003H207.366V17.2003ZM219.821 16.2003C219.821 15.2668 219.617 14.3991 219.181 13.6256L217.438 14.6073C217.684 15.0441 217.821 15.5656 217.821 16.2003H219.821ZM219.181 13.6256C218.75 12.8614 218.146 12.2568 217.381 11.8262L216.4 13.5687C216.846 13.8199 217.187 14.1614 217.438 14.6073L219.181 13.6256ZM217.396 11.8346C216.625 11.3829 215.751 11.1733 214.807 11.1733V13.1733C215.448 13.1733 215.963 13.3132 216.385 13.5603L217.396 11.8346ZM214.807 11.1733C213.819 11.1733 212.905 11.4044 212.093 11.8911L213.122 13.6061C213.59 13.3257 214.141 13.1733 214.807 13.1733V11.1733ZM212.097 11.889C211.315 12.3537 210.696 12.9886 210.252 13.7813L211.998 14.7585C212.27 14.2728 212.639 13.8935 213.119 13.6081L212.097 11.889ZM210.255 13.7763C209.808 14.5644 209.586 15.4355 209.575 16.3683L211.575 16.3902C211.582 15.7718 211.726 15.2367 211.995 14.7635L210.255 13.7763ZM209.575 16.3793V19.5881H211.575V16.3793H209.575ZM209.575 19.5881C209.575 20.6817 209.777 21.6826 210.22 22.558L212.004 21.655C211.732 21.1157 211.575 20.4376 211.575 19.5881H209.575ZM210.224 22.5665C210.675 23.4368 211.323 24.1263 212.159 24.6091L213.159 22.8767C212.666 22.5925 212.282 22.191 212 21.6465L210.224 22.5665ZM212.159 24.6091C213.002 25.0955 213.97 25.3182 215.024 25.3182V23.3182C214.254 23.3182 213.645 23.1574 213.159 22.8767L212.159 24.6091ZM215.024 25.3182C215.723 25.3182 216.388 25.2196 217.007 25.0096L216.365 23.1154C215.979 23.2463 215.535 23.3182 215.024 23.3182V25.3182ZM217.007 25.0096C217.637 24.796 218.196 24.468 218.667 24.0196L217.288 22.5713C217.043 22.8047 216.741 22.9881 216.365 23.1154L217.007 25.0096ZM218.667 24.0196C219.141 23.5684 219.494 23.0216 219.73 22.3973L217.86 21.688C217.722 22.0522 217.53 22.3407 217.288 22.5713L218.667 24.0196ZM218.73 23.0404L223.767 23.3728L223.898 21.3772L218.861 21.0448L218.73 23.0404ZM222.854 22.1683C222.633 23.2158 222.184 24.1154 221.508 24.8859L223.012 26.205C223.921 25.1687 224.521 23.9547 224.811 22.5817L222.854 22.1683ZM221.508 24.8864C220.839 25.6493 219.961 26.2631 218.843 26.7149L219.592 28.5692C220.963 28.0153 222.112 27.2313 223.012 26.2045L221.508 24.8864ZM218.846 26.7136C217.751 27.1516 216.454 27.3835 214.935 27.3835V29.3835C216.654 29.3835 218.212 29.1211 219.589 28.5705L218.846 26.7136Z" fill="white"/>
</g>
<defs>
<filter id="filter0_d_1_2" x="0.431824" y="0.322449" width="227.516" height="43.0412" filterUnits="userSpaceOnUse" color-interpolation-filters="sRGB">
<feFlood flood-opacity="0" result="BackgroundImageFix"/>
<feColorMatrix in="SourceAlpha" type="matrix" values="0 0 0 0 0 0 0 0 0 0 0 0 0 0 0 0 0 0 127 0" result="hardAlpha"/>
<feOffset dy="4"/>
<feGaussianBlur stdDeviation="2"/>
<feComposite in2="hardAlpha" operator="out"/>
<feColorMatrix type="matrix" values="0 0 0 0 0 0 0 0 0 0 0 0 0 0 0 0 0 0 0.25 0"/>
<feBlend mode="normal" in2="BackgroundImageFix" result="effect1_dropShadow_1_2"/>
<feBlend mode="normal" in="SourceGraphic" in2="effect1_dropShadow_1_2" result="shape"/>
</filter>
</defs>
</svg>
